
<svg width="43" height="43" viewBox="0 0 43 43" fill="none" xmlns="http://www.w3.org/2000/svg">
<g clip-path="url(#clip0_407_2892)">
<path d="M21.6364 42.9992C33.2846 42.9992 42.7274 33.5565 42.7274 21.9083C42.7274 10.2601 33.2846 0.817383 21.6364 0.817383C9.98825 0.817383 0.545532 10.2601 0.545532 21.9083C0.545532 33.5565 9.98825 42.9992 21.6364 42.9992Z" fill="#007AB9"/>
<path d="M34.2362 23.6062V32.3015H29.1949V24.1889C29.1949 22.152 28.467 20.7609 26.6417 20.7609C25.2488 20.7609 24.4213 21.6974 24.0558 22.6042C23.9231 22.9283 23.8889 23.3784 23.8889 23.8329V32.3011H18.8472C18.8472 32.3011 18.9149 18.5611 18.8472 17.1388H23.8893V19.2875C23.8791 19.3044 23.8649 19.3209 23.8558 19.3371H23.8893V19.2875C24.5593 18.2566 25.7541 16.7828 28.4328 16.7828C31.7496 16.7828 34.2362 18.9499 34.2362 23.6062ZM13.5732 9.83008C11.8486 9.83008 10.7203 10.9621 10.7203 12.4494C10.7203 13.9052 11.8159 15.0699 13.507 15.0699H13.5397C15.2981 15.0699 16.3914 13.9052 16.3914 12.4494C16.3579 10.9621 15.2981 9.83008 13.5732 9.83008ZM11.02 32.3015H16.0598V17.1388H11.02V32.3015Z" fill="#F1F2F2"/>
</g>
<defs>
<clipPath id="clip0_407_2892">
<rect width="42.1818" height="42.1818" fill="white" transform="translate(0.545471 0.818359)"/>
</clipPath>
</defs>
</svg>
